<svg width="14" height="18" viewBox="0 0 14 18" fill="none" xmlns="http://www.w3.org/2000/svg">
<path d="M2.83334 14.0001C1.30918 14.3434 0.333344 14.8701 0.333344 15.4617C0.333344 16.4951 3.31834 17.3334 7.00001 17.3334C10.6817 17.3334 13.6667 16.4951 13.6667 15.4617C13.6667 14.8701 12.6908 14.3434 11.1667 14.0001M9.08334 6.50008C9.08334 7.05262 8.86385 7.58252 8.47315 7.97322C8.08245 8.36392 7.55254 8.58341 7.00001 8.58341C6.44748 8.58341 5.91757 8.36392 5.52687 7.97322C5.13617 7.58252 4.91668 7.05262 4.91668 6.50008C4.91668 5.94755 5.13617 5.41764 5.52687 5.02694C5.91757 4.63624 6.44748 4.41675 7.00001 4.41675C7.55254 4.41675 8.08245 4.63624 8.47315 5.02694C8.86385 5.41764 9.08334 5.94755 9.08334 6.50008Z" stroke="#7B9AAF" stroke-width="1.5" stroke-linecap="round" stroke-linejoin="round"/>
<path d="M8.04752 13.5784C7.76605 13.8492 7.39063 14.0005 7.00002 14.0005C6.60942 14.0005 6.234 13.8492 5.95252 13.5784C3.37836 11.0842 -0.0708096 8.29841 1.61086 4.25341C2.52169 2.06591 4.70502 0.666748 7.00002 0.666748C9.29502 0.666748 11.4792 2.06675 12.3892 4.25341C14.0692 8.29258 10.6284 11.0926 8.04752 13.5784Z" stroke="#7B9AAF" stroke-width="1.5" stroke-linecap="round" stroke-linejoin="round"/>
</svg>
