<svg width="14" height="18" viewBox="0 0 14 18" fill="none" xmlns="http://www.w3.org/2000/svg">
<path d="M2.83333 14.0001C1.30917 14.3434 0.333333 14.8701 0.333333 15.4617C0.333333 16.4951 3.31833 17.3334 7 17.3334C10.6817 17.3334 13.6667 16.4951 13.6667 15.4617C13.6667 14.8701 12.6908 14.3434 11.1667 14.0001M9.08333 6.50008C9.08333 7.05262 8.86384 7.58252 8.47314 7.97322C8.08244 8.36392 7.55253 8.58341 7 8.58341C6.44747 8.58341 5.91756 8.36392 5.52686 7.97322C5.13616 7.58252 4.91667 7.05262 4.91667 6.50008C4.91667 5.94755 5.13616 5.41764 5.52686 5.02694C5.91756 4.63624 6.44747 4.41675 7 4.41675C7.55253 4.41675 8.08244 4.63624 8.47314 5.02694C8.86384 5.41764 9.08333 5.94755 9.08333 6.50008Z" stroke="#7B9AAF" stroke-width="1.5" stroke-linecap="round" stroke-linejoin="round"/>
<path d="M8.0475 13.5784C7.76602 13.8492 7.3906 14.0005 7 14.0005C6.6094 14.0005 6.23398 13.8492 5.9525 13.5784C3.37833 11.0842 -0.0708337 8.29841 1.61083 4.25341C2.52167 2.06591 4.705 0.666748 7 0.666748C9.295 0.666748 11.4792 2.06675 12.3892 4.25341C14.0692 8.29258 10.6283 11.0926 8.0475 13.5784Z" stroke="#7B9AAF" stroke-width="1.5" stroke-linecap="round" stroke-linejoin="round"/>
</svg>
