<svg width="14" height="18" viewBox="0 0 14 18" fill="none" xmlns="http://www.w3.org/2000/svg">
<path d="M2.83331 14.0001C1.30915 14.3434 0.333313 14.8701 0.333313 15.4617C0.333313 16.4951 3.31831 17.3334 6.99998 17.3334C10.6816 17.3334 13.6666 16.4951 13.6666 15.4617C13.6666 14.8701 12.6908 14.3434 11.1666 14.0001M9.08331 6.50008C9.08331 7.05262 8.86382 7.58252 8.47312 7.97322C8.08242 8.36392 7.55251 8.58341 6.99998 8.58341C6.44745 8.58341 5.91754 8.36392 5.52684 7.97322C5.13614 7.58252 4.91665 7.05262 4.91665 6.50008C4.91665 5.94755 5.13614 5.41764 5.52684 5.02694C5.91754 4.63624 6.44745 4.41675 6.99998 4.41675C7.55251 4.41675 8.08242 4.63624 8.47312 5.02694C8.86382 5.41764 9.08331 5.94755 9.08331 6.50008Z" stroke="#7B9AAF" stroke-width="1.5" stroke-linecap="round" stroke-linejoin="round"/>
<path d="M8.04749 13.5784C7.76602 13.8492 7.39059 14.0005 6.99999 14.0005C6.60939 14.0005 6.23397 13.8492 5.95249 13.5784C3.37833 11.0842 -0.0708402 8.29841 1.61083 4.25341C2.52166 2.06591 4.70499 0.666748 6.99999 0.666748C9.29499 0.666748 11.4792 2.06675 12.3892 4.25341C14.0692 8.29258 10.6283 11.0926 8.04749 13.5784Z" stroke="#7B9AAF" stroke-width="1.5" stroke-linecap="round" stroke-linejoin="round"/>
</svg>
