<svg width="55" height="55" viewBox="0 0 55 55" fill="none" xmlns="http://www.w3.org/2000/svg">
<path d="M37.7812 35.4184L37.8547 35.5355H37.993H38.0028C38.7596 35.5355 39.375 34.9201 39.375 34.1633V29.7969C39.375 28.7748 40.2123 27.9375 41.2344 27.9375H42.6406C43.6627 27.9375 44.5 28.7748 44.5 29.7969C44.5 30.819 43.6627 31.6562 42.6406 31.6562H41.9375H41.6875V31.9062L41.6875 34.1625C41.6875 34.1627 41.6875 34.1628 41.6875 34.163C41.6847 34.9742 41.4141 35.7618 40.9178 36.4035C40.4212 37.0452 39.7266 37.505 38.9419 37.7113L38.7213 37.7694L38.7589 37.9944C38.823 38.3779 38.875 38.7536 38.875 39.1386C38.875 39.3919 38.7744 39.6349 38.5952 39.814C38.4161 39.9931 38.1732 40.0938 37.9198 40.0938H29.4598H28.9163L29.27 40.5065L35.39 47.646L35.4926 47.7657L35.6449 47.7247C35.8672 47.6648 36.086 47.625 36.3125 47.625C36.8193 47.625 37.3147 47.7753 37.7361 48.0569C38.1576 48.3384 38.486 48.7386 38.6799 49.2069C38.8739 49.6751 38.9246 50.1903 38.8258 50.6874C38.7269 51.1845 38.4828 51.6411 38.1245 51.9995C37.7661 52.3578 37.3095 52.6019 36.8124 52.7008C36.3153 52.7996 35.8001 52.7489 35.3319 52.5549C34.8636 52.361 34.4634 52.0326 34.1819 51.6111C33.9004 51.1899 33.7501 50.6947 33.75 50.1881C33.7516 49.8295 33.8284 49.4752 33.9755 49.1482L34.0406 49.0034L33.9373 48.8829L29.4711 43.6714L29.0312 43.1582V43.8341V47.7645V47.9083L29.1555 47.9806C29.9216 48.4267 30.4375 49.2443 30.4375 50.1875C30.4375 50.8671 30.1675 51.5189 29.687 51.9995C29.2064 52.48 28.5546 52.75 27.875 52.75C27.1954 52.75 26.5436 52.48 26.063 51.9995C25.5825 51.5189 25.3125 50.8671 25.3125 50.1875C25.3125 49.2443 25.8284 48.4267 26.5945 47.9806L26.7188 47.9083V47.7645V43.8341V43.1582L26.2789 43.6714L21.8127 48.8829L21.7092 49.0036L21.7747 49.1485C21.9183 49.4666 22 49.817 22 50.1875C22 50.6943 21.8497 51.1897 21.5681 51.6111C21.2866 52.0326 20.8864 52.361 20.4181 52.5549C19.9499 52.7489 19.4347 52.7996 18.9376 52.7008C18.4405 52.6019 17.9839 52.3578 17.6255 51.9995C17.2672 51.6411 17.0231 51.1845 16.9242 50.6874C16.8254 50.1903 16.8761 49.6751 17.0701 49.2069C17.264 48.7386 17.5925 48.3384 18.0139 48.0569C18.4347 47.7756 18.9295 47.6254 19.4357 47.625C19.6609 47.6285 19.8848 47.6616 20.1014 47.7236L20.2556 47.7678L20.36 47.646L26.48 40.5065L26.8337 40.0938H26.2902H17.8302C17.3034 40.0938 16.8755 39.6662 16.875 39.1396C16.8797 38.5805 16.9535 38.0242 17.0947 37.4833L17.1595 37.2352L16.9098 37.1767C16.1014 36.9876 15.3804 36.5311 14.8637 35.8812C14.3471 35.2315 14.0648 34.4264 14.0625 33.5963V31.9062V31.6562H13.8125H13.392C12.2153 31.6562 11.25 30.691 11.25 29.5142C11.25 28.3346 12.2153 27.3708 13.392 27.3708H14.233C15.4097 27.3708 16.375 28.3346 16.375 29.5142L16.375 33.5966L16.375 33.5972C16.3759 33.9607 16.5207 34.309 16.7777 34.566C17.0347 34.823 17.3831 34.9678 17.7466 34.9688H17.7472H18.1705H18.2927L18.3678 34.8723C19.6472 33.2285 21.6183 32.1562 23.8573 32.1562H26.4688H26.7188V31.9062V27.6875V27.4375H26.4688H22.1221C22.1221 27.4375 22.1221 27.4375 22.122 27.4375C21.1033 27.4371 20.1264 27.0322 19.4061 26.3117C18.6896 25.5949 18.2855 24.6242 18.2813 23.6112L20.0691 9.78628C20.1983 8.90452 20.9546 8.25 21.8464 8.25H33.9036C34.3353 8.24997 34.7525 8.40542 35.079 8.68787C35.4049 8.96991 35.6186 9.35976 35.6809 9.78622L37.4687 23.6112C37.4645 24.6242 37.0604 25.5949 36.3439 26.3117C35.6236 27.0322 34.6467 27.4371 33.628 27.4375C33.6279 27.4375 33.6279 27.4375 33.6279 27.4375H29.2812H29.0312V27.6875V31.9062V32.1562H29.2812H31.8923C33.0696 32.1579 34.2273 32.458 35.2571 33.0285C36.287 33.5989 37.1554 34.4212 37.7812 35.4184Z" fill="#38AECA" stroke="#38AECA" stroke-width="0.5"/>
<circle cx="27.5" cy="27.5" r="25.5" stroke="#38AECA" stroke-width="4"/>
</svg>
