<svg width="20" height="20" viewBox="0 0 20 20" fill="none" xmlns="http://www.w3.org/2000/svg">
<path d="M10 10C11.5188 10 12.75 8.76878 12.75 7.25C12.75 5.73122 11.5188 4.5 10 4.5C8.48122 4.5 7.25 5.73122 7.25 7.25C7.25 8.76878 8.48122 10 10 10Z" stroke="#7B9AAF" stroke-width="1.5"/>
<path d="M9.99998 19.1666C15.0626 19.1666 19.1666 15.0625 19.1666 9.99992C19.1666 4.93731 15.0626 0.833252 9.99998 0.833252C4.93737 0.833252 0.833313 4.93731 0.833313 9.99992C0.833313 15.0625 4.93737 19.1666 9.99998 19.1666Z" stroke="#7B9AAF" stroke-width="1.5"/>
<path d="M15.4725 17.3333C15.3258 14.6823 14.5145 12.75 9.99997 12.75C5.48538 12.75 4.67413 14.6823 4.52747 17.3333" stroke="#7B9AAF" stroke-width="1.5" stroke-linecap="round"/>
</svg>
