<svg width="40" height="40" viewBox="0 0 40 40" fill="none" xmlns="http://www.w3.org/2000/svg">
<path d="M13.3333 15C12.8611 15 12.4656 14.84 12.1467 14.52C11.8278 14.2 11.6678 13.8044 11.6667 13.3333C11.6656 12.8622 11.8256 12.4667 12.1467 12.1467C12.4678 11.8267 12.8633 11.6667 13.3333 11.6667H33.3333C33.8056 11.6667 34.2017 11.8267 34.5217 12.1467C34.8417 12.4667 35.0011 12.8622 35 13.3333C34.9989 13.8044 34.8389 14.2005 34.52 14.5217C34.2011 14.8428 33.8056 15.0022 33.3333 15H13.3333ZM13.3333 21.6667C12.8611 21.6667 12.4656 21.5067 12.1467 21.1867C11.8278 20.8667 11.6678 20.4711 11.6667 20C11.6656 19.5289 11.8256 19.1333 12.1467 18.8133C12.4678 18.4933 12.8633 18.3333 13.3333 18.3333H33.3333C33.8056 18.3333 34.2017 18.4933 34.5217 18.8133C34.8417 19.1333 35.0011 19.5289 35 20C34.9989 20.4711 34.8389 20.8672 34.52 21.1883C34.2011 21.5094 33.8056 21.6689 33.3333 21.6667H13.3333ZM13.3333 28.3333C12.8611 28.3333 12.4656 28.1733 12.1467 27.8533C11.8278 27.5333 11.6678 27.1378 11.6667 26.6667C11.6656 26.1955 11.8256 25.8 12.1467 25.48C12.4678 25.16 12.8633 25 13.3333 25H33.3333C33.8056 25 34.2017 25.16 34.5217 25.48C34.8417 25.8 35.0011 26.1955 35 26.6667C34.9989 27.1378 34.8389 27.5339 34.52 27.855C34.2011 28.1761 33.8056 28.3355 33.3333 28.3333H13.3333ZM6.66667 15C6.19445 15 5.79889 14.84 5.48001 14.52C5.16112 14.2 5.00112 13.8044 5.00001 13.3333C4.99889 12.8622 5.15889 12.4667 5.48001 12.1467C5.80112 11.8267 6.19667 11.6667 6.66667 11.6667C7.13667 11.6667 7.53278 11.8267 7.85501 12.1467C8.17723 12.4667 8.33667 12.8622 8.33334 13.3333C8.33001 13.8044 8.17001 14.2005 7.85334 14.5217C7.53667 14.8428 7.14112 15.0022 6.66667 15ZM6.66667 21.6667C6.19445 21.6667 5.79889 21.5067 5.48001 21.1867C5.16112 20.8667 5.00112 20.4711 5.00001 20C4.99889 19.5289 5.15889 19.1333 5.48001 18.8133C5.80112 18.4933 6.19667 18.3333 6.66667 18.3333C7.13667 18.3333 7.53278 18.4933 7.85501 18.8133C8.17723 19.1333 8.33667 19.5289 8.33334 20C8.33001 20.4711 8.17001 20.8672 7.85334 21.1883C7.53667 21.5094 7.14112 21.6689 6.66667 21.6667ZM6.66667 28.3333C6.19445 28.3333 5.79889 28.1733 5.48001 27.8533C5.16112 27.5333 5.00112 27.1378 5.00001 26.6667C4.99889 26.1955 5.15889 25.8 5.48001 25.48C5.80112 25.16 6.19667 25 6.66667 25C7.13667 25 7.53278 25.16 7.85501 25.48C8.17723 25.8 8.33667 26.1955 8.33334 26.6667C8.33001 27.1378 8.17001 27.5339 7.85334 27.855C7.53667 28.1761 7.14112 28.3355 6.66667 28.3333Z" fill="#7B9AAF"/>
</svg>
