<svg width="40" height="40" viewBox="0 0 40 40" fill="none" xmlns="http://www.w3.org/2000/svg">
<path d="M6.66667 35C6.19445 35 5.79889 34.84 5.48001 34.52C5.16112 34.2 5.00112 33.8044 5.00001 33.3333C4.99889 32.8622 5.15889 32.4667 5.48001 32.1467C5.80112 31.8267 6.19667 31.6667 6.66667 31.6667H8.33334V6.66667C8.33334 6.19444 8.49334 5.79889 8.81334 5.48C9.13334 5.16111 9.52889 5.00111 10 5H21.6667C22.1389 5 22.535 5.16 22.855 5.48C23.175 5.8 23.3345 6.19556 23.3333 6.66667H30C30.4722 6.66667 30.8683 6.82667 31.1883 7.14667C31.5083 7.46667 31.6678 7.86222 31.6667 8.33333V31.6667H33.3333C33.8056 31.6667 34.2017 31.8267 34.5217 32.1467C34.8417 32.4667 35.0011 32.8622 35 33.3333C34.9989 33.8044 34.8389 34.2006 34.52 34.5217C34.2011 34.8428 33.8056 35.0022 33.3333 35H30C29.5278 35 29.1322 34.84 28.8133 34.52C28.4945 34.2 28.3345 33.8044 28.3333 33.3333V10H23.3333V33.3333C23.3333 33.8056 23.1733 34.2017 22.8533 34.5217C22.5333 34.8417 22.1378 35.0011 21.6667 35H6.66667ZM20 20C20 19.5278 19.84 19.1322 19.52 18.8133C19.2 18.4944 18.8045 18.3344 18.3333 18.3333C17.8622 18.3322 17.4667 18.4922 17.1467 18.8133C16.8267 19.1344 16.6667 19.53 16.6667 20C16.6667 20.47 16.8267 20.8661 17.1467 21.1883C17.4667 21.5106 17.8622 21.67 18.3333 21.6667C18.8045 21.6633 19.2006 21.5033 19.5217 21.1867C19.8428 20.87 20.0022 20.4744 20 20Z" fill="#7B9AAF"/>
</svg>
