<svg width="36" height="36" viewBox="0 0 36 36" fill="none" xmlns="http://www.w3.org/2000/svg">
<path d="M21.3524 28.5C22.6499 28.5 23.3354 30.036 22.4699 31.002C21.9072 31.6306 21.2182 32.1334 20.448 32.4777C19.6778 32.822 18.8436 32.9999 17.9999 33C17.1563 32.9999 16.3221 32.822 15.5518 32.4777C14.7816 32.1334 14.0927 31.6306 13.5299 31.002C12.7019 30.078 13.2929 28.6335 14.4809 28.5105L14.6459 28.5015L21.3524 28.5ZM17.9999 3C20.0369 3 21.7589 4.3545 22.3124 6.2115L22.3814 6.468L22.3934 6.5325C24.0472 7.46507 25.4565 8.7763 26.5057 10.3587C27.5549 11.9411 28.2142 13.7496 28.4294 15.636L28.4714 16.0665L28.4999 16.5V20.8965L28.5314 21.1005C28.7368 22.2057 29.3484 23.1941 30.2459 23.871L30.4964 24.0465L30.7394 24.195C32.0294 24.9255 31.5794 26.844 30.1739 26.991L29.9999 27H5.99992C4.45792 27 3.91942 24.954 5.26042 24.195C5.83197 23.8716 6.32579 23.4269 6.70723 22.8924C7.08867 22.3578 7.34848 21.7462 7.46842 21.1005L7.49992 20.886L7.50142 16.431C7.59288 14.4718 8.16316 12.5649 9.16235 10.8772C10.1615 9.18949 11.5592 7.77241 13.2329 6.75L13.6049 6.531L13.6199 6.4665C13.8315 5.56924 14.3136 4.75862 15.0009 4.14427C15.6882 3.52992 16.5476 3.14148 17.4629 3.0315L17.7359 3.006L17.9999 3Z" fill="white"/>
</svg>
