<svg width="15" height="12" viewBox="0 0 15 12" fill="none" xmlns="http://www.w3.org/2000/svg">
<path d="M6.707 11.3635C6.51947 11.5505 6.26516 11.6555 6 11.6555C5.73484 11.6555 5.48053 11.5505 5.293 11.3635L0.793 6.87468C0.605528 6.68762 0.500213 6.43395 0.500213 6.16945C0.500213 5.90494 0.605528 5.65127 0.793 5.46421L5.293 0.975432C5.4816 0.793729 5.7342 0.693186 5.9964 0.695458C6.2586 0.697731 6.50941 0.802637 6.69482 0.987583C6.88023 1.17253 6.98539 1.42272 6.98767 1.68426C6.98995 1.9458 6.88916 2.19777 6.707 2.3859L4 5.17194L13.5 5.17194C13.7652 5.17194 14.0196 5.27703 14.2071 5.4641C14.3946 5.65117 14.5 5.90489 14.5 6.16945C14.5 6.434 14.3946 6.68772 14.2071 6.87479C14.0196 7.06186 13.7652 7.16695 13.5 7.16695L4 7.16695L6.707 9.95299C6.89447 10.14 6.99979 10.3937 6.99979 10.6582C6.99979 10.9227 6.89447 11.1764 6.707 11.3635Z" fill="#38AECA"/>
</svg>
